<?xml version="1.0" encoding="utf-8"?>
<!-- Generator: Adobe Illustrator 27.5.0, SVG Export Plug-In . SVG Version: 6.00 Build 0)  -->
<svg version="1.1" id="Layer_1" xmlns="http://www.w3.org/2000/svg" xmlns:xlink="http://www.w3.org/1999/xlink" x="0px" y="0px"
	 viewBox="0 0 7000 4081" style="enable-background:new 0 0 7000 4081;" xml:space="preserve">
<g>
	<rect style="fill-rule:evenodd;clip-rule:evenodd;" width="7000" height="4081"/>
	<g>
		<defs>
			<path id="SVGID_1_" d="M2911.707,4081c825.174-909.162,512.208-761.859,1811.521-1214.587
				c618.352-215.456,1121.726-496.836,1121.726-1070.349C5844.953,712.99,4678.708,778.369,4396.105,0h2293.629v834.011v2228.202
				V4081H2911.707z"/>
		</defs>
		<clipPath id="SVGID_00000086670300239066956030000006797527336701986944_">
			<use xlink:href="#SVGID_1_"  style="overflow:visible;"/>
		</clipPath>
		
			<linearGradient id="SVGID_00000136413324511910225080000004783552307580879256_" gradientUnits="userSpaceOnUse" x1="6051.1118" y1="2661.1216" x2="2019.4827" y2="660.0555">
			<stop  offset="0" style="stop-color:#000000"/>
			<stop  offset="1" style="stop-color:#FFCF4B"/>
		</linearGradient>
		
			<rect x="2911.707" style="clip-path:url(#SVGID_00000086670300239066956030000006797527336701986944_);fill:url(#SVGID_00000136413324511910225080000004783552307580879256_);" width="3778.028" height="4081"/>
	</g>
	<g>
		<defs>
			<path id="SVGID_00000023253121484295722210000006907376640806664377_" d="M6689.734,0H4826.474
				C5109.077,778.369,6275.32,712.99,6275.32,1796.064c0,1406.437-2216.772,1055.874-2542.914,2284.936h2957.328V3062.213V834.011V0
				z"/>
		</defs>
		<clipPath id="SVGID_00000083049537266980362950000011004183948885290906_">
			<use xlink:href="#SVGID_00000023253121484295722210000006907376640806664377_"  style="overflow:visible;"/>
		</clipPath>
		
			<linearGradient id="SVGID_00000181795402512397837380000008979674934373629866_" gradientUnits="userSpaceOnUse" x1="7215.1079" y1="2756.9795" x2="3863.9966" y2="1558.897">
			<stop  offset="0" style="stop-color:#000000"/>
			<stop  offset="1" style="stop-color:#FFCF4B"/>
		</linearGradient>
		
			<rect x="3732.406" style="clip-path:url(#SVGID_00000083049537266980362950000011004183948885290906_);fill:url(#SVGID_00000181795402512397837380000008979674934373629866_);" width="2957.328" height="4081"/>
	</g>
	<g>
		<defs>
			<path id="SVGID_00000041986185027326515640000000747259555143517879_" d="M7000,0H5136.739
				c282.603,778.369,1448.846,712.99,1448.846,1796.064c0,1406.437-1905.4,1055.874-2231.539,2284.936H7000V3062.213V834.011V0z"/>
		</defs>
		<clipPath id="SVGID_00000093862513039615194930000007195691774809150866_">
			<use xlink:href="#SVGID_00000041986185027326515640000000747259555143517879_"  style="overflow:visible;"/>
		</clipPath>
		
			<linearGradient id="SVGID_00000157998962518591918370000012475396909058522037_" gradientUnits="userSpaceOnUse" x1="7092.2241" y1="2481.9172" x2="4415.7583" y2="1647.0974">
			<stop  offset="0" style="stop-color:#D87400"/>
			<stop  offset="1" style="stop-color:#FFCF4B"/>
		</linearGradient>
		
			<rect x="4354.046" style="clip-path:url(#SVGID_00000093862513039615194930000007195691774809150866_);fill:url(#SVGID_00000157998962518591918370000012475396909058522037_);" width="2645.954" height="4081"/>
	</g>
	<g>
		<defs>
			<path id="SVGID_00000131338286505682275630000015317251369125031560_" d="M7000,0H5336.91
				c282.603,778.369,1448.846,712.99,1448.846,1796.064c0,1406.437-1274.861,1055.874-1601,2284.936H7000V3062.213V834.011V0z"/>
		</defs>
		<clipPath id="SVGID_00000174604215184828888380000008326842957881394826_">
			<use xlink:href="#SVGID_00000131338286505682275630000015317251369125031560_"  style="overflow:visible;"/>
		</clipPath>
		
			<linearGradient id="SVGID_00000133493724553159762180000015139809772558854277_" gradientUnits="userSpaceOnUse" x1="7662.1406" y1="2051.1082" x2="5695.043" y2="2037.8148">
			<stop  offset="0" style="stop-color:#D87400"/>
			<stop  offset="1" style="stop-color:#FFCF4B"/>
		</linearGradient>
		
			<rect x="5184.756" style="clip-path:url(#SVGID_00000174604215184828888380000008326842957881394826_);fill:url(#SVGID_00000133493724553159762180000015139809772558854277_);" width="1815.244" height="4081"/>
	</g>
	<g>
		<defs>
			<path id="SVGID_00000106118164427808816250000018088971723267546035_" d="M7000,0H5457.013
				c282.603,778.369,1448.844,712.99,1448.844,1796.064c0,1406.437-734.397,1055.874-1060.537,2284.936H7000V3062.213V834.011V0z"/>
		</defs>
		<clipPath id="SVGID_00000072275857710327688980000014309991802227979699_">
			<use xlink:href="#SVGID_00000106118164427808816250000018088971723267546035_"  style="overflow:visible;"/>
		</clipPath>
		
			<linearGradient id="SVGID_00000183213666769747930370000014163281388687408573_" gradientUnits="userSpaceOnUse" x1="9152.6172" y1="3549.0325" x2="6995.1538" y2="2436.0093">
			<stop  offset="0" style="stop-color:#D87400"/>
			<stop  offset="1" style="stop-color:#FFCF4B"/>
		</linearGradient>
		
			<rect x="5457.013" style="clip-path:url(#SVGID_00000072275857710327688980000014309991802227979699_);fill:url(#SVGID_00000183213666769747930370000014163281388687408573_);" width="1542.987" height="4081"/>
	</g>
	<g>
		<defs>
			<path id="SVGID_00000021824175445066910980000014497772883463001019_" d="M4088.293,0
				c-825.174,909.161-512.208,761.858-1811.521,1214.586c-618.352,215.457-1121.724,496.836-1121.724,1070.349
				c0,1083.074,1166.243,1017.696,1448.846,1796.065H310.265v-834.011V1018.786V0H4088.293z"/>
		</defs>
		<clipPath id="SVGID_00000009574356144042168560000005038009488556398522_">
			<use xlink:href="#SVGID_00000021824175445066910980000014497772883463001019_"  style="overflow:visible;"/>
		</clipPath>
		
			<linearGradient id="SVGID_00000018933027965696451200000013421574354833631677_" gradientUnits="userSpaceOnUse" x1="948.8689" y1="1419.8759" x2="4980.5415" y2="3420.9414">
			<stop  offset="0" style="stop-color:#000000"/>
			<stop  offset="1" style="stop-color:#FFCF4B"/>
		</linearGradient>
		
			<rect x="310.265" style="clip-path:url(#SVGID_00000009574356144042168560000005038009488556398522_);fill:url(#SVGID_00000018933027965696451200000013421574354833631677_);" width="3778.028" height="4081"/>
	</g>
	<g>
		<defs>
			<path id="SVGID_00000104668558272293637610000014327905774789211052_" d="M310.265,4081h1863.261
				C1890.924,3302.631,724.68,3368.009,724.68,2284.935C724.68,878.499,2941.454,1229.061,3267.594,0H310.265v1018.786v2228.203
				V4081z"/>
		</defs>
		<clipPath id="SVGID_00000021819790853305499250000001935233536893458617_">
			<use xlink:href="#SVGID_00000104668558272293637610000014327905774789211052_"  style="overflow:visible;"/>
		</clipPath>
		
			<linearGradient id="SVGID_00000019649018965177666370000018320608712956331393_" gradientUnits="userSpaceOnUse" x1="-215.1283" y1="1324.0385" x2="3135.9834" y2="2522.0789">
			<stop  offset="0" style="stop-color:#000000"/>
			<stop  offset="1" style="stop-color:#FFCF4B"/>
		</linearGradient>
		
			<rect x="310.265" style="clip-path:url(#SVGID_00000021819790853305499250000001935233536893458617_);fill:url(#SVGID_00000019649018965177666370000018320608712956331393_);" width="2957.328" height="4081"/>
	</g>
	<g>
		<defs>
			<path id="SVGID_00000134957265696969115680000009006115822894341766_" d="M0,4081h1863.261
				c-282.603-778.369-1448.846-712.991-1448.846-1796.065c0-1406.436,1905.4-1055.874,2231.539-2284.935H0v1018.786v2228.203V4081z"
				/>
		</defs>
		<clipPath id="SVGID_00000117664367428988729750000004506746696928842143_">
			<use xlink:href="#SVGID_00000134957265696969115680000009006115822894341766_"  style="overflow:visible;"/>
		</clipPath>
		
			<linearGradient id="SVGID_00000096738740496379843170000017364094840444058767_" gradientUnits="userSpaceOnUse" x1="-92.2368" y1="1599.0792" x2="2584.2292" y2="2433.8984">
			<stop  offset="0" style="stop-color:#D87400"/>
			<stop  offset="1" style="stop-color:#FFCF4B"/>
		</linearGradient>
		
			<rect style="clip-path:url(#SVGID_00000117664367428988729750000004506746696928842143_);fill:url(#SVGID_00000096738740496379843170000017364094840444058767_);" width="2645.954" height="4081"/>
	</g>
	<g>
		<defs>
			<path id="SVGID_00000141443131125444851630000005379044976808381849_" d="M0,4081h1663.09
				c-282.603-778.369-1448.846-712.991-1448.846-1796.065c0-1406.436,1274.861-1055.874,1601-2284.935H0v1018.786v2228.203V4081z"/>
		</defs>
		<clipPath id="SVGID_00000036225911231608982280000005882541303771353760_">
			<use xlink:href="#SVGID_00000141443131125444851630000005379044976808381849_"  style="overflow:visible;"/>
		</clipPath>
		
			<linearGradient id="SVGID_00000147913850166497073490000013328749089760836269_" gradientUnits="userSpaceOnUse" x1="-662.1478" y1="2029.8927" x2="1304.95" y2="2043.1848">
			<stop  offset="0" style="stop-color:#D87400"/>
			<stop  offset="1" style="stop-color:#FFCF4B"/>
		</linearGradient>
		
			<rect style="clip-path:url(#SVGID_00000036225911231608982280000005882541303771353760_);fill:url(#SVGID_00000147913850166497073490000013328749089760836269_);" width="1815.244" height="4081"/>
	</g>
	<g>
		<defs>
			<path id="SVGID_00000030466181220029512430000001061929338209088688_" d="M0,4081h1542.987
				C1260.384,3302.631,94.143,3368.009,94.143,2284.935C94.143,878.499,828.541,1229.061,1154.68,0H0v1018.786v2228.203V4081z"/>
		</defs>
		<clipPath id="SVGID_00000065056704320627882710000005009082561732216720_">
			<use xlink:href="#SVGID_00000030466181220029512430000001061929338209088688_"  style="overflow:visible;"/>
		</clipPath>
		
			<linearGradient id="SVGID_00000093170873736385967750000001813357920930135997_" gradientUnits="userSpaceOnUse" x1="-2152.6289" y1="531.959" x2="4.8323" y2="1644.983">
			<stop  offset="0" style="stop-color:#D87400"/>
			<stop  offset="1" style="stop-color:#FFCF4B"/>
		</linearGradient>
		
			<rect style="clip-path:url(#SVGID_00000065056704320627882710000005009082561732216720_);fill:url(#SVGID_00000093170873736385967750000001813357920930135997_);" width="1542.987" height="4081"/>
	</g>
</g>
</svg>
